<?xml version="1.0" encoding="UTF-8"?>
<svg width="43px" height="38px" viewBox="0 0 43 38" version="1.1" xmlns="http://www.w3.org/2000/svg" xmlns:xlink="http://www.w3.org/1999/xlink">
    <!-- Generator: Sketch 59 (86127) - https://sketch.com -->
    <title>Group 10 Copygrey</title>
    <desc>Created with Sketch.</desc>
    <g id="Account" stroke="none" stroke-width="1" fill="none" fill-rule="evenodd">
        <g id="Group-10-Copy" fill="#BABABA">
            <path d="M3.1486,0.0004 L22.6126,4.9074 L22.6126,4.8714 L30.5966,4.8714 C36.7496,4.8714 41.7366,9.8534 41.7466,16.0034 L41.7466,16.0034 L42.7906,16.0034 L42.7906,22.2654 L41.7376,22.2654 C41.5446,28.2544 36.6326,33.0494 30.5966,33.0494 L30.5966,33.0494 L22.6126,33.0494 L22.6126,33.0174 L22.5986,33.0454 L3.1136,37.9204 L1.7236,35.8984 L1.7316,27.4734 L0.0006,25.3474 L0.0006,12.5734 L1.7396,10.4374 L1.7556,2.0214 L3.1486,0.0014 L3.1486,0.0004 Z M18.8936,20.1134 C17.6966,20.0984 16.7716,20.2714 16.1206,20.6324 C15.4676,20.9944 15.1376,21.4894 15.1306,22.1184 L15.1306,22.1184 L15.0766,26.4474 C15.0686,27.0844 15.3596,27.5794 15.9486,27.9374 C16.5376,28.2944 17.4046,28.4794 18.5496,28.4934 C19.6936,28.5074 20.6846,28.3534 21.5236,28.0294 L21.5236,28.0294 L21.5726,24.0354 L19.2306,24.0054 L19.1956,26.7954 C19.0246,26.8584 18.7806,26.8864 18.4656,26.8824 C18.1496,26.8794 17.9126,26.8264 17.7536,26.7244 C17.5936,26.6244 17.5156,26.4774 17.5176,26.2864 L17.5176,26.2864 L17.5666,22.3634 C17.5686,22.1714 17.6826,22.0224 17.9096,21.9144 C18.1346,21.8054 18.5686,21.7554 19.2106,21.7634 C19.8526,21.7714 20.4936,21.8704 21.1336,22.0604 L21.1336,22.0604 L21.1536,20.3674 C20.5466,20.2094 19.7936,20.1244 18.8936,20.1134 Z M11.4336,20.0794 L11.3316,28.3444 L13.7686,28.3754 L13.8726,20.1104 L11.4336,20.0794 Z M3.5246,19.9814 L3.4226,28.2464 L7.4646,28.2964 C9.1866,28.3184 10.0556,27.6804 10.0716,26.3844 L10.0716,26.3844 L10.1276,21.9004 C10.1346,21.2954 9.9026,20.8364 9.4306,20.5204 C8.9586,20.2044 8.2896,20.0404 7.4236,20.0294 L7.4236,20.0294 L3.5246,19.9814 Z M5.9127,21.4782 L7.0677,21.4932 C7.3247,21.4962 7.4977,21.5362 7.5887,21.6132 C7.6777,21.6892 7.7217,21.7992 7.7197,21.9412 L7.7197,21.9412 L7.6667,26.2122 C7.6627,26.5772 7.4407,26.7582 7.0027,26.7522 L7.0027,26.7522 L5.8467,26.7382 L5.9127,21.4782 Z M18.9466,9.6564 C17.7496,9.6414 16.8246,9.8154 16.1736,10.1774 C15.5216,10.5404 15.1916,11.0354 15.1836,11.6664 L15.1836,11.6664 L15.1306,16.0034 C15.1226,16.6414 15.4136,17.1374 16.0026,17.4964 C16.5916,17.8534 17.4576,18.0394 18.6016,18.0534 C19.7466,18.0674 20.7366,17.9134 21.5756,17.5884 L21.5756,17.5884 L21.6256,13.5864 L19.2836,13.5574 L19.2486,16.3534 C19.0766,16.4154 18.8336,16.4434 18.5176,16.4404 C18.2026,16.4364 17.9656,16.3824 17.8056,16.2814 C17.6466,16.1804 17.5686,16.0334 17.5706,15.8414 L17.5706,15.8414 L17.6196,11.9114 C17.6226,11.7194 17.7366,11.5704 17.9626,11.4614 C18.1876,11.3524 18.6216,11.3024 19.2626,11.3104 C19.9056,11.3184 20.5456,11.4174 21.1846,11.6084 L21.1846,11.6084 L21.2066,9.9114 C20.5976,9.7534 19.8446,9.6684 18.9466,9.6564 Z M11.4886,9.6234 L11.3846,17.9044 L13.8226,17.9354 L13.9256,9.6534 L11.4886,9.6234 Z M3.5816,9.5244 L3.4776,17.8064 L7.3756,17.8554 C9.1926,17.8774 10.1106,17.2554 10.1266,15.9884 L10.1266,15.9884 L10.1356,15.1404 C10.1466,14.3274 9.7406,13.8454 8.9196,13.6914 C9.6806,13.5254 10.0656,13.0564 10.0756,12.2834 L10.0756,12.2834 L10.0856,11.5064 C10.1006,10.2404 9.2006,9.5944 7.3826,9.5724 L7.3826,9.5724 L3.5816,9.5244 Z M5.926,14.4538 L7.016,14.4678 C7.519,14.4738 7.769,14.6488 7.764,14.9908 L7.764,14.9908 L7.754,15.8398 C7.749,16.1828 7.495,16.3508 6.993,16.3438 L6.993,16.3438 L5.903,16.3308 L5.926,14.4538 Z M5.9685,11.0615 L6.9625,11.0735 C7.4655,11.0795 7.7145,11.2535 7.7105,11.5965 L7.7105,11.5965 L7.7005,12.3735 C7.6955,12.7155 7.4425,12.8835 6.9395,12.8775 L6.9395,12.8775 L5.9455,12.8655 L5.9685,11.0615 Z" id="Combined-Shape"></path>
        </g>
    </g>
</svg>