<?xml version="1.0" encoding="UTF-8"?>
<!-- Generator: Adobe Illustrator 17.0.0, SVG Export Plug-In . SVG Version: 6.00 Build 0)  -->
<!DOCTYPE svg PUBLIC "-//W3C//DTD SVG 1.1//EN" "http://www.w3.org/Graphics/SVG/1.1/DTD/svg11.dtd">
<svg version="1.1" id="Слой_1" xmlns="http://www.w3.org/2000/svg" xmlns:xlink="http://www.w3.org/1999/xlink" x="0px" y="0px" width="108.62px" height="38.232px" viewBox="0 0 108.62 38.232" enable-background="new 0 0 108.62 38.232" xml:space="preserve">
<g>
	<g>
		<path fill="#fff" d="M50.251,8.852l-9.95-4.337l-4.628,3.632l-22.112,7.258L0,15.16l13.388,4.503l9.966,1.422l1.313,2.765    l-2.204,5.855l1.352,3.317l4.981-0.004l-0.62-1.13l-2.749-0.807l-0.308-2.132l4.321-4.183l5.799-1.384l2.668,1.442l1.589-0.388    l-2.779-3.101l-3.731-0.002l0.214-0.207l4.61-5.176l2.937-1.666l6.134,1.982l1.509-0.986l-3.786-2.743l-0.143-2.143l5.802,1.483    L50.251,8.852z M28.652,0.312c3.317,0,6.433,0.867,9.135,2.389l0.269-0.231C35.279,0.897,32.07,0,28.652,0    c-8.385,0-15.509,5.399-18.086,12.91l0.414,0.013C13.526,5.579,20.477,0.312,28.652,0.312z M47.365,19.116    c0,10.385-8.38,18.805-18.713,18.805c-9.525,0-17.387-7.152-18.56-16.404L9.67,21.398c1.128,9.482,9.197,16.834,18.981,16.834    c10.547,0,19.1-8.541,19.116-19.084l-0.403-0.092V19.116z M56.161,25.376h3.609V13.709h-3.609V25.376z M108.62,13.709h-4.692    l-2.838,3.031l-2.853-3.031h-4.679l5.437,5.938l-5.177,5.73h4.596l2.677-2.872l2.658,2.872h4.614l-5.193-5.73L108.62,13.709z     M82.779,25.073l-3.86-3.206c0.905-0.355,1.617-0.867,2.128-1.53c0.512-0.664,0.768-1.405,0.768-2.226    c0-1.458-0.636-2.579-1.908-3.366c-1.134-0.692-2.612-1.037-4.435-1.037H60.556v3.031h4.169v8.637h3.627V16.74h7.458    c1.522,0,2.284,0.452,2.284,1.357c0,0.463-0.255,0.814-0.762,1.049c-0.398,0.183-0.906,0.275-1.522,0.275h-5.08v5.956h3.623    v-2.927h0.002l3.527,2.927h15.214v-3.016h-6.693v-1.389h6.693v-3.014h-6.693V16.74h6.693v-3.031H82.779V25.073z"/>
	</g>
</g>
</svg>